<svg xmlns="http://www.w3.org/2000/svg" width="1920.892" height="836.118" viewBox="0 0 1920.892 836.118"><g transform="translate(0.462 -72.074)"><path d="M0,1450.151S107.311,1191.3,324.834,1284.834,669.97,1737.281,870.091,1824.29s94.26-157.341,255.227-191.42,189.97,152.991,388.641,55.106S1920,1241.329,1920,1241.329" transform="translate(0 -1169)" fill="none" stroke="#707070" stroke-width="1"/><path d="M0,1450.151S107.311,1191.3,324.834,1284.834,669.97,1737.281,870.091,1824.29s94.26-157.341,255.227-191.42,189.97,152.991,388.641,55.106S1920,1241.329,1920,1241.329" transform="translate(0 -1131)" fill="none" stroke="#707070" stroke-width="1"/><path d="M0,1450.151S107.311,1191.3,324.834,1284.834,669.97,1737.281,870.091,1824.29s94.26-157.341,255.227-191.42,189.97,152.991,388.641,55.106S1920,1241.329,1920,1241.329" transform="translate(0 -1090)" fill="none" stroke="#707070" stroke-width="1"/><path d="M0,1450.151S107.311,1191.3,324.834,1284.834,669.97,1737.281,870.091,1824.29s94.26-157.341,255.227-191.42,189.97,152.991,388.641,55.106S1920,1241.329,1920,1241.329" transform="translate(0 -1049)" fill="none" stroke="#707070" stroke-width="1"/><path d="M0,1450.151S107.311,1191.3,324.834,1284.834,669.97,1737.281,870.091,1824.29s94.26-157.341,255.227-191.42,189.97,152.991,388.641,55.106S1920,1241.329,1920,1241.329" transform="translate(0 -1002.117)" fill="none" stroke="#707070" stroke-width="1"/><path d="M0,1450.151S107.311,1191.3,324.834,1284.834,669.97,1737.281,870.091,1824.29s94.26-157.341,255.227-191.42,189.97,152.991,388.641,55.106S1920,1241.329,1920,1241.329" transform="translate(0 -935.212)" fill="none" stroke="#707070" stroke-width="1"/></g></svg>
